<svg xmlns="http://www.w3.org/2000/svg" viewBox="0 0 975.31 306.38"><defs><style>.cls-1{fill:#fff;}</style></defs><g id="Layer_2" data-name="Layer 2"><g id="Layer_1-2" data-name="Layer 1"><path class="cls-1" d="M528.79,233.31c-2.89,1.72-5.48,3.69-9.3,3.64-3.43,0-5.16-1.94-6.63-4.17-1.25-1.87-1.68-4.29-2.48-6.51l-3.65,3.13-.36-.29c1.29-1.83,2.6-3.66,3.88-5.5s.91-4.88-.69-5.78c1.86-3.84,3.6-7.73,5.58-11.49,3.59-6.81,6.84-13.8,12.33-19.44,2.38-2.45,3.81-5.84,5.75-8.74,3-4.46,6-8.92,9.11-13.25.81-1.11,2.4-1.62,3.34-2.66a13.25,13.25,0,0,0,1.6-3.14,6.75,6.75,0,0,1,.74-1.35c4.47-5.29,9-10.51,13.44-15.85,4.27-5.16,8.22-10.6,12.64-15.63s9.13-9.53,13.64-14.35c3.82-4.07,7.43-8.35,11.27-12.39,2.34-2.46,5-4.63,7.43-7,3.65-3.51,7.12-7.21,10.92-10.54s7.91-6.14,11.74-9.37c2.21-1.87,4-4.26,6.21-6.12,5.54-4.63,11.23-9.06,16.81-13.63,3.73-3,7.3-6.28,11.07-9.26,2.79-2.2,5.84-4,8.68-6.16,3.92-2.93,7.55-6.3,11.67-8.87,3.67-2.29,7.82-3.81,11.81-5.54,1.24-.54,2.56-1.05,2.76,1.44.1,1.19,1.62,2.24,2.38,3.42a3.31,3.31,0,0,1,.33,1.64c.08,4.73-2.78,8.25-5.28,11.7-1.83,2.53-4.68,4.3-7,6.46-1.47,1.35-2.6,3.22-5,2.93-.14-.28-.28-.56-.43-.84l-3.41,4.33,1.06.78,2.86-4.49A4.55,4.55,0,0,1,681.85,57c-.28.16-.68.19-.89.41-1.41,1.49-3.11,2.81-4.11,4.55-2.42,4.22-7.56,5.78-9.58,10.32-.07.15-.73,0-1.12,0l0,.14c-.65-2.69-1.24-2.85-3.27-1.18-1.21,1-2.86,1.5-3.9,2.62-2.12,2.25-4.17,4.57-4.34,8.06,0,1.17-1.71,2.25-1.81,3.44-.42,4.88-4.71,6.76-7.26,9.94-2.76,3.46-6.93,6.12-8.67,10-1.56,3.42-4,4.81-6.48,6.85-1.62,1.36-2.71,3.34-4.17,4.93-2.55,2.81-5.21,5.52-7.81,8.29-2,2.19-3.93,4.54-6.12,6.55-1.21,1.11-3,1.5-4.36,2.52a16.21,16.21,0,0,0-2.76,3.27,23.39,23.39,0,0,0-1.4,2.44l-.51,0-.63-.07-.74,0c-.19-.27-.46-.81-.55-.78-3.44,1.14-7,1.83-8.85,5.81-.93,2-3,3.49-4.61,5.18q-6.1,6.48-12.23,12.94l.53.68,5.93-4.38c-.17,2.93-2.23,3.85-3.56,5.17-2.6,2.58-5.4,5-8.18,7.36s-5.57,4.63-8.34,7c-1.19,1-2.27,2.18-3.46,3.18-4.3,3.62-8.68,7.14-12.91,10.82-1.13,1-2.77,1.85-2.17,4.07.15.55-1.06,1.57-1.78,2.22-1.11,1-2.4,1.77-3.51,2.76-2.26,2-4.45,4.14-6.68,6.2q-2.57,2.37-5.16,4.72c-2.44,2.22-4.81,4.54-7.36,6.64-3.22,2.64-3.68,6.4-4.14,10.11-.06.43,1.68,1.63,2.45,1.51a25.29,25.29,0,0,0,4.89-1.77l-.55-1.24c1.21-.6,2.35-1.11,3.43-1.72,4.41-2.47,8.78-5,13.21-7.46,7.11-3.88,14.37-7.48,21.37-11.56,12-7,23.94-14.23,35.83-21.5,3.1-1.9,5.93-4.27,8.87-6.45s4.51-2.2,7.41.31a67.94,67.94,0,0,1,5.23,4.79,3.16,3.16,0,0,1,.22,2.44c-.72,3.07-1.59,6.1-2.4,9.15.22.28.44.55.65.83l9.28-1.57a21.9,21.9,0,0,1,4.62-.7c3.49.2,6.07-2.16,9.16-3.05,2.21-.64,4.34-1.57,6.51-2.35.3-.11.85-.25.94-.12,1.25,1.68,2.45-.07,3-.46,3.29-2.38,6.36-5.06,9.49-7.66a12.45,12.45,0,0,0,1.63-1.53c1-1.16,1.94-.7,2.37.28.56,1.26.84,2.59,2.47,2.81a7.22,7.22,0,0,1-.43,2.18,8.31,8.31,0,0,1-1.64,1.66l-1,1c-.52.33-1.25.53-1.51,1a45.7,45.7,0,0,0-3.54,7.73c.64-.71,1.27-1.43,2.27-2.56-.3,2.86,1.08,2.64,2.69,2.36a93.91,93.91,0,0,0,32.15-11.86,53.77,53.77,0,0,1,7.25-3.28c4.53-1.85,6.62-6.23,9.9-9.36,4.11-3.91,6.82-8.82,10.59-12.92,3.51-3.83,6.81-7.85,10.32-11.69a14.77,14.77,0,0,1,4.32-3.07q-1.68,2.33-3.37,4.64l.88.59c2.18-3,4.37-6,6.52-9.06,5.08-7.14,9.89-14.44,17.28-19.6,2.55-1.78,4.21-4.88,6.22-7.42a84.07,84.07,0,0,1,18.64-17c2.5-1.71,2.8-1.39,3.39,1.77.14.71.91,1.84,1.43,1.86,3,.13,2.27,2.29,1.69,3.56-1.54,3.32-2.24,7.14-5.11,9.72-1,.9-2.24,1.54-3.26,2.44a13.4,13.4,0,0,0-2.54,2.78c-1.63,2.56-2.94,5.34-4.71,7.8-1.57,2.17-3.76,3.88-5.32,6-.86,1.2-2.68,2.3-1.68,4.36.07.13-.16.47-.31.65-2.6,2.95-5.24,5.85-7.78,8.84-1.15,1.35-2,2.94-3.13,4.3s-2,3.14-4.29,2a1,1,0,0,1,0-.3c.93-1.79,1.85-3.57,3-5.83-.82.36-1.37.62-1.93.82-.73.26-1.48.44-2.21.69-.2.07-.55.26-.54.35.39,3-2.5,2.92-3.83,4.29-.21.21-.38.47-.89,1.12l2.07-.48c-4.16,8.11-10.58,14.16-17.78,20.07l2.51-.13-2.77,1.9c-.1-.51-.17-.9-.25-1.3-.14,0-.36,0-.4.12a7.52,7.52,0,0,1-6.92,3.65c-.94-.14-.87,0-1.28,1.58a3.72,3.72,0,0,1-1.55,2.11c-5.3,3.11-8.58,7.9-11.32,13.23-1.19,2.32-2.71,4.47-4,6.73a7.32,7.32,0,0,0-.35,1.78c3.53-1.88,6.59-3.76,9.84-5.19,6.9-3,13.89-5.89,20.87-8.75q7-2.9,14.15-5.58a22.77,22.77,0,0,1,4.55-1.13,8.51,8.51,0,0,1,6.66,1.39,8.62,8.62,0,0,1,3.43,7.09v1.79c5.58-1.35,10.92-2.71,16.3-3.92,7.31-1.63,14.64-3.11,22-4.73a9.36,9.36,0,0,0,2.9-1.27c3.77-2.37,7.64-4,12.24-2.77,1.64.45,3.11.7,3.68,2.73.22.79,1.4,1.31,2,1.86,2.5-1.2,4.81-2.45,7.24-3.4a2.67,2.67,0,0,1,2.43.62c1.39,1.78,3.16,3.68,3.49,5.74.26,1.59-1.35,3.55-2.28,5.26a15.33,15.33,0,0,1-1.93,2.36l.39.6c2.38-.76,4.76-1.53,7.14-2.26,5.69-1.76,11.12-4.44,17.21-4.84,3.56-.23,7.1-1,10.67-1.12,5.33-.21,9.28,2.45,12.83,6.36a10.61,10.61,0,0,0,6.52,3.48,182.48,182.48,0,0,0,18.25-.5c5-.26,10-.64,15-1.17,3.26-.34,6.46-1.2,9.72-1.56,4-.43,8-.58,12.06-.85v2.88c1.83-2.48,3.68-3.42,6.15-1.2,0-.29,0-.59-.05-.88l-1-.64v-.55l30.53-1.19v5.06c-1.82.17-3.64.38-5.46.51-2.68.18-5.37.3-8.06.44-3.35.18-6.71.31-10.06.56a4.69,4.69,0,0,0-2.66,1.16l1.69.32c-.32,1.21-10.25,1.42-11.74.31l5.44-1.32c-.06-.21-.11-.43-.16-.64-3.63,1.42-8-.16-11,2.66-1.78.31-3.44.29-4.82.91a17.4,17.4,0,0,1-10.14,1.39c-.28,0-.73,0-.85.2-1.5,2.18-3.05,1.16-4.9.45-1.68-.64-3.64-.53-5.47-.74l-8.58-1-.22.79.77.82-3.83,1a51.85,51.85,0,0,0-5.76-1c-3.71-.23-7.12-.81-10.24-3.31-2.18-1.75-5.07-2.59-7.68-3.76-3.11-1.38-6.73-.67-9.68-1.69-4.67-1.62-8,.9-11.85,2-4.93,1.38-10.08,1.93-15,3.25a61.43,61.43,0,0,0-9.26,3.74c-.73.33-1.2,1.27-1.88,2l-5.55-5.05c.85-1.76,1.78-3.7,2.7-5.63l-.38-.44-3.17,1.48-.35-.41c.81-1.06,1.63-2.11,2.45-3.17l-.3-.36c-2,1.41-4.1,2.8-6.12,4.24-1.72,1.22-3.84,2.38-4.34,4.46-.81,3.37-3.61,3.81-6,4.94-2.55,1.23-5.19,2.28-7.83,3.3a5.27,5.27,0,0,1-2.21.13c-1.63-.12-3.26-.23-4.87-.5-1.39-.24-3-.26-2.58-2.66a2.72,2.72,0,0,0-1.5-2.22c-2.11-.45-2.32-1.54-1.73-3.29a3.61,3.61,0,0,0,0-2.57l2.25-1.27c-.06-.17-.12-.35-.17-.52H779.8l-.27-.86,7.87-2.89-.09-.27-15.47,3.36c.16.35.34.77.49,1.13-4.52,3.67-10,3.4-15.33,3.93-2.47.25-4.86,1.35-7.29,2.06l.18.64,1.79.23c-3.38,1.49-7.57.75-8.85-1.27V204a15.87,15.87,0,0,0-3.63,1.25c-1.79,1.14-3.19.23-4.14-.88-.73-.86-.68-2.4-1-3.56l-3-.27c.13-.52.26-1,.46-1.86-3.19.56-6.11,3.2-9.7,2-1.22,2.76-4.05,3.66-6.45,5.06s-4.82,2.66-7.28,4l-.17-.28c-1.93,1.15-3.81,2.37-5.74,3.51a5,5,0,0,1-1.65.43c-.15,0-.42-.22-.48-.16s-.22.48-.41.58c-1.46.83-2.56.84-3.76-.78s-3.22-3-4.72-4.59a2.7,2.7,0,0,1-.38-2c2.53-1.28,1.85-3.6,2.05-5.7a12.17,12.17,0,0,1,1.17-3.28c.34-.81.76-1.58,1.32-2.74l-4.21-.3,1.61-1.29-.4-.75c-2.09,1.34-4.18,2.67-6.26,4-.39.25-.67.75-1.08.9-2.94,1.05-6.06,1.72-8.81,3.14-2.49,1.28-5,.31-7.4.9a16.91,16.91,0,0,1-3.71.81,7.49,7.49,0,0,1-2.41.63,6.07,6.07,0,0,1-2.71-.94c-2.56-1.66-5.09-3.37-7.52-5.22-.58-.44-.73-1.47-1.23-2.57-2.23,1.26-4.38,2.7-6.7,3.73-3.61,1.62-7.33,3-11,4.37-.07,0-.31-.8-.6-.93a4.15,4.15,0,0,0-1.58-.23c-1,0-2.08,0-3.12,0l-.08-.63,5.08-1.83c-.46-.51-.85-1-1.27-1.44l6-1.22c0-.25,0-.51,0-.77a10,10,0,0,0-2.62,0c-2.52.69-5,1.54-7.8,2.42l2.23.61-5.11,2,2.46.2c0,.13-.08.34-.15.37-2.12.64-4.26,1.22-6.37,1.9-3.87,1.25-6.33-1.48-9-3.4-1.18-.86-1.85-1.13-3.11.33l2-5.34-.69-.37c-1.78,2.6-3.52,5.22-5.35,7.78-1.29,1.8-1.62,4.61-4.71,4.58a3.38,3.38,0,0,0-1.56.61c-2.61,1.48-2.76,2.75-.71,4.92-1.42.64-2.87,1.31-4.34,1.93-1,.43-1.89.93-2.55-.71-.33-.83-1.58-1.26-2.33-2-2.52-2.36-3.08-5.35-2.6-8.65l1.15-1.52-.38-.39-6.29,2.7,1.51,1.74a18.61,18.61,0,0,0-4,1.34c-2,1.19-3.65,2.83-5.57,4.1-3.55,2.36-7,5.08-10.84,6.7-2.24.93-4.67,1.46-6.77,2.84-1.79,1.17-3.94,2-5.34,3.5-2.5,2.74-6.51,1.59-9.09,4l3.26-4.2-.69-.81-7.84,4.53,1.34.65-2.46,2.77Zm57.37-108.6a3.39,3.39,0,0,1,.15-.45c0-.05.13-.06.2-.09-.2.83-.13,1.93-.64,2.45-2.81,2.84-5.62,5.67-7.48,9.29a5.06,5.06,0,0,1-.73,1c-2.66,3-5.33,6-8,9-1.1,1.24-2.1,2.59-3.28,3.76-3.58,3.58-7.6,6.74-9.77,11.59a35.11,35.11,0,0,1-3.65,5.57,10.13,10.13,0,0,1-3.33,3,19.5,19.5,0,0,0-4.15,3.78,9.12,9.12,0,0,0-2,3.12c-1.27,3.76-2.6,7.45-5.05,10.63-.93,1.21-1.77,2.48-2.64,3.72l.5.46c1.4-1.27,2.81-2.53,4.19-3.82,4.92-4.62,9.8-9.29,14.77-13.86,7-6.44,14.09-12.76,21.06-19.23,2.61-2.42,4.88-5.2,7.46-7.66s5.27-4.7,8-7c.88-.74,2.13-1.08,2.88-1.91,1.89-2.07,3.43-4.5,5.41-6.47,6-5.9,12.15-11.57,18.11-17.48,4-4,7.69-8.27,11.61-12.32,7.43-7.65,15-15.17,22.35-22.88,3.63-3.78,6.91-7.9,10.43-11.79,3.7-4.09,7.62-8,11.22-12.16C679,48.94,684,42.68,689.12,36.49a6.24,6.24,0,0,0-2.87.86c-.88.46-1.67,1.39-2.55,1.46-3.65.31-6.18,2.83-9,4.61-2.41,1.53-4.3,3.9-6.34,6-.2.21.2,1,.43,2l-15.06,8.61c-.05-.38-.09-.73-.21-1.72l-9,8.64c-2.67-1.28-.9,1.14-1.17,1.93a9.13,9.13,0,0,0-2.61,2,32.09,32.09,0,0,1-1.91,2.59c-3.64,3.22-7.67,5.83-10.62,10s-7.07,7.23-10.7,10.76a11.88,11.88,0,0,1-1.71,1.15l-.14-.24L617.5,93l-.65-.53c-1.56,1.93-3.14,3.85-4.67,5.81-1.39,1.76-2.64,3.66-4.15,5.31-.64.71-1.92.77-2.66,1.43-1.6,1.43-3,3.1-4.56,4.59-2.5,2.39-5.06,4.73-7.77,7.25-.15-.79-.21-1.12-.33-1.78-2.11,2.61-4,4.89-5.83,7.27a7.33,7.33,0,0,0-.72,2.32l-2.78-.93,6.77-7.91-.58-.44c-2.94,4.07-8.17,6.43-8.62,11.88Zm151.34,29.5.79.48c3.85-4.32,7.75-8.6,11.55-13,2-2.33,2-2.4,1.51-4.19-3.87,3.57-8.94,5.72-12,10.9l2.17-1.24.28.3Zm65.33,36.43c0,4.5-5,4.87-6.87,8.07,7-2.61,13.06-6.69,18.9-11.13l-.32-.77ZM564.69,207.05c1.28,0,2.64.38,3.61-.08a81.62,81.62,0,0,0,7.56-4.26c.42-.26.6-.91.89-1.38-.56-.05-1.25-.34-1.67-.11C571.6,203.1,568.17,205.08,564.69,207.05ZM652.57,54.33c-3.44,2.46-7.05,4.73-8.86,8.79C648.35,61.93,649.72,57.35,652.57,54.33ZM514.36,211.84c5.9-4.61,6.82-6.78,4-9.13Zm88.11-81.18c-1,1.73-3.93,3-4.4,6.62l7.33-6.62Zm-.5,66.73.79.66c1.47-1.69,3-3.33,4.37-5.08.25-.31,0-1.06-.1-1.57,0-.08-.92-.14-1,0C604.6,193.4,603.3,195.4,602,197.39Zm-40,16.29-.54-.82c-2.59,1.11-5.31,2-7.3,4.13l.45.78ZM694.07,29l-.4-.64-5.27,3.19.37.6C692.39,31.34,692.39,31.34,694.07,29ZM544.1,222c3.83-.06,6.61-2.14,5.83-4ZM637.74,96.87l.61.64,8.92-8.6-.5-.54ZM522.92,213.38l6-5.72C524.66,208.88,523.35,210.08,522.92,213.38ZM772.16,107.09c3,.22,3,.22,5.06-4ZM661.88,199.15c0,.23.11.45.16.68,2.44.57,4.34-1.07,6.33-2.33Zm230.14.23c1.33,1.24,3.74-1.15,4.17.73l1.84-.6,0-.53Zm-146.14-6.66c-.08-.27-.16-.53-.23-.8l-6.53,2.46.34.9Z"/><path class="cls-1" d="M145.31,72.3a20.79,20.79,0,0,1,1.81-4.38c2.23-3.13,4.7-6.07,7.18-9.22,2.75,1.95,3.65-.71,4.85-2.25a33.35,33.35,0,0,0,2.65-4.53c2-3.62,2.38-8,5.18-11.28.47-.55.67-1.33,1.12-1.91,3.53-4.58,7-9.23,10.66-13.68q8.19-9.9,16.7-19.52A35.7,35.7,0,0,1,201.35.62c1.68-1.23,3.91-.53,5.21,1.16.79,1,2,1.69,2.78,2.74,2.5,3.51,1.08,7.08-.22,10.51a100.87,100.87,0,0,1-4.33,9.88A61,61,0,0,1,201,30.53c-1.25,1.87-2.83,3.64-3.6,5.71-3,8.18-7.46,15.57-12.3,22.73-1,1.52-2.73,2.62-3.65,4.19-1.88,3.2-3.35,6.65-5.18,9.88a20.71,20.71,0,0,1-4.38,5.69c-1.23,1.07-4,2-3.75,3.85.33,3-1.41,4.79-2.66,6.77-1.92,3.05-4.88,5.48-6.55,8.63s-3,6-5.57,8.29c-.35.3-.34,1-.51,1.6l1,.19a29.83,29.83,0,0,1-2.28,2.59c-.87.79-2.14,1.22-2.81,2.13-1.94,2.6-4.38,5.14-5.28,8.11-1.09,3.63-3.13,4.86-6.37,5.54-.81.17-1.42,1.72-2,2.72s-.57,2-1.12,2.81c-1.83,2.68-3.7,5.34-5.72,7.87a32.7,32.7,0,0,1-3.76,3.48c-.36.32-.87.51-1.14.88-3.5,4.74-6.91,9.54-10.46,14.24-1.6,2.11-3.58,3.92-5.17,6-1.26,1.69-2.12,3.67-3.25,5.45a4.36,4.36,0,0,1-1.82,1.86c-3,1-4.28,3.74-6.06,5.94-2.32,2.89-4.47,5.91-6.72,8.85-.24.32-.71.73-1,.68-3.55-.55-3.5,3.35-5.59,4.57-.57.34-1.24.49-1.83.81a5.47,5.47,0,0,0-1.58,1.08q-6.08,6.87-12.08,13.8c-1.18,1.36-2.34,2.75-3.5,4.12l-.72-.42v-2l-.52-.22a44.27,44.27,0,0,1-2.88,4.31c-1.8,2.15-3.74,4.19-5.7,6.19s-4.11,4-6.16,6c-1.36,1.33-2.77,2.64-4,4.06a14.42,14.42,0,0,0-2.18,3.19c-1.17,2.4-2.26,4.86-3.22,7.35s-1.82,5.32-2.89,8.52A53.77,53.77,0,0,1,40.73,246c6.26-2.73,11.19-7.45,16.66-11.34,6.7-4.76,13.47-9.41,20.15-14.19,2.9-2.07,5.63-4.37,8.48-6.5,3.71-2.77,7.4-5.58,11.24-8.16,6.93-4.67,13.94-9.22,21-13.72,2.37-1.51,5-2.54,7.35-4.11,3.19-2.16,6.12-4.71,9.27-6.93a22.35,22.35,0,0,1,4.79-2.46c2.12-.83,4.34-1.4,6.43-2.06l2,3.65c.68-.86,1.07-1.37,1.48-1.85,1.13-1.35,2.13-1.84,3.2.16a8.54,8.54,0,0,0,2.19,2.26,4.32,4.32,0,0,1,1.54,5.16c-1.63,4.17-3.54,8.24-5.25,12.39a3.05,3.05,0,0,0-.14,2.23c1.24,2.48.27,4.3-1.44,6.23,1.67,2.09.28,3.95-.89,5.74l1.82,1.27-.83-.32c5.28-5,10.6-10,15.85-15,5-4.83,9.82-9.93,15.08-14.47,1.7-1.46,5-2.64,6.81-2,2.43.89,4.37,3.57,6.05,5.84.59.79,2.34,3.16-.68,4,0,0,.26,1.15.41,1.81l-1.54,4.26c3.46-2.21,6.14-4.33,9.15-5.74A61.92,61.92,0,0,1,212.52,188c1.37-.33,3.48.81,4.69,1.92a22.27,22.27,0,0,1,4.22,5.7c.62,1.12.42,2.7.65,4.49,2.78-1.7,5.56-3.27,8.21-5a51.79,51.79,0,0,1,16.19-7.45,14.93,14.93,0,0,1,17.14,7.52,4.43,4.43,0,0,1,.36,1.42c.17,1.1.56,1.69,1.71.88a30.83,30.83,0,0,1,15-5.36c4.07-.42,8.05-1.77,12.08-2.67.72-.16,1.49-.1,2.23-.22,5.16-.87,10.37-1.5,15.45-2.71,4.42-1,7.76.73,11.27,3.14,3.13-3.32,6.26-6.8,9.58-10.1a26.83,26.83,0,0,1,6-4.91c4.4-2.35,5.71-6.62,7.46-10.72a34,34,0,0,1,1.92-3.43c1.85-3.26,3.65-6.55,5.58-9.77,1.08-1.81,2.38-3.48,3.51-5.1l-.81-.09c4-6.22,7.81-12.4,11.91-18.37,2.22-3.25,5.1-6,7.42-9.23,2.79-3.84,5.2-8,8-11.83,3.77-5.28,7.62-10.52,11.62-15.62,2.28-2.89,5.05-5.38,7.37-8.23,1-1.21,1.14-3.11,2.11-4.35,4.9-6.23,9.86-12.42,15-18.48a103.15,103.15,0,0,1,7.3-7.34A14.07,14.07,0,0,1,428.56,50c-1.88,2.9-5,4.91-5.58,8.65,2.89-3.5,5.5-7.27,10.38-8.21l-.58-.54a38.89,38.89,0,0,1,2.76-3.47c1.56-1.57,3.27-3,4.92-4.47a2.76,2.76,0,0,0,.31-.37c1.1,0,2.34-.45,3.26-.06,3.45,1.44,3.62,2.06,2.28,5.75-1.75,4.83-3.14,9.84-5.37,14.44-1.71,3.53-4.56,6.47-6.69,9.8-.61,1-.23,2.5-.77,3.53a48.67,48.67,0,0,1-3.85,6.18c-1.75,2.4-3.23,5.57-5.64,6.8-4.62,2.37-5.88,7.5-9.68,10.36-.14.11,0,.55,0,.84l-.76-.07c.16-.87.32-1.74.6-3.29-1.05,1.29-1.75,2.21-2.53,3.06s-1.92,1.87-2.8,2.88a15.69,15.69,0,0,0-2.82,3.64c-1,2.25-2.73,4-3.89,6.12-1.51,2.77-3.32,6.3-7.24,7.05a3.61,3.61,0,0,0-1.56,1.12c-1.14,1.08-2.22,2.22-3.5,3.52.11.56-.32.84-1.23,1.37-.34.2-.06,1.51-.06,2.76l4.09-3.79.62.56c-3.09,8.62-11.75,12.63-16.35,20.2,1.73,1.77-.61,2.75-1.75,3.65-1.69,1.33-3.12,2.37-3.61,4.87-.3,1.59-2.56,2.76-3.87,4.19a62.35,62.35,0,0,1-7.08,7l6.33-10.81a5.34,5.34,0,0,0-1.59.54c-3.07,2.57-4.52,6.17-6.13,9.71-.59,1.32-2,2.24-3.1,3.34-1.62,1.68-3.36,3.25-4.85,5-1.71,2.09-3.16,4.41-4.81,6.56-1.21,1.57-2.55,3-3.83,4.56a.94.94,0,0,0-.19.46c-1.1,6.86-5.4,12.53-7,19.21-.6,2.55-1,5.14-1.58,8,1,.13,1.77.28,2.55.31,2.18.08,4.35.12,6.53.12.24,0,.48-.36.74-.53,6.53-4.21,13.08-8.39,19.58-12.65,3.68-2.41,5.85-6,7.9-9.89,1.83-3.45,4.11-6.78,8.1-8.16,1.78-.62,3.44-.7,4.34,1.51a4.63,4.63,0,0,0,1.28,1.84c2.45,1.9,1.55,3.54-.06,5.47-2.29,2.73-4.43,5.51-7.67,7.24-3.91,2.1-4.81,6.16-6.19,10.91a40.83,40.83,0,0,0,5.21-2.65c4.16-3,7.94-6.57,12.35-9.07a172.36,172.36,0,0,1,18.16-8.48c1.17-.49,3,.14,4.34.64s1.62,1.72.35,2.9c5.22.86,6,5.19,2.49,13.63.54-.08,1.13,0,1.33-.23,2.73-3.34,5.34-6.78,8.13-10.07a16.38,16.38,0,0,1,4.41-4,53.86,53.86,0,0,1,11.18-4.92c7.49-2,10.5-2.52,15.31,4.55a3.32,3.32,0,0,0,.77,1c3.58,2.26,3.47,5.69,2.69,9.18a56.74,56.74,0,0,1-2.59,8.9c-1.87,4.65-1.84,9.5-2.36,15,16.53-.68,32.78-.8,48.86-4.07l.18.92L498,222.62l2.88-.19-.13,1.26c-.44-.16-1.11-.55-1.23-.42-2.52,2.69-6.12,1.95-9.13,3-1.7.61-3.66-.42-5.3,1.16-.41.4-2.18-.66-3.52-.49l1.85.73-.05.46-2.38-.24-2.9,2c-.9-2.56-2.54-1.16-3.59-1.07-1.33.11-2.6,1.19-3.93,1.26-5.59.27-11.2.45-16.51-1.94-.8-.36-2-.36-2.41-.95-1.91-3.21-5.26-5.38-5.84-9.62-.79-5.72.77-10.92,2.28-16.21.93-3.28,1.84-6.57,2.63-9.89a2.16,2.16,0,0,0-2.46-2.89,25.72,25.72,0,0,0-6.7,1.83c-1.37.57-2.38,2-3.71,2.74-.92.52-2.28.3-3.12.88-4.47,3.1-8.83,6.36-13.26,9.52-1.32.94-2.8,1.66-4.11,2.6a3.39,3.39,0,0,0-1.84,3c-.14,1.83-2.11,3.67-3.59,5.2a20,20,0,0,1-4,2.6l-2.9-2.1c0-.26.4-1.32.08-1.62-3.79-3.55.25-5.77,1.35-8.44a18.4,18.4,0,0,0,1.7-4.4l-1.46.65c.49-1.53,1-2.89,1.33-4.3a48.11,48.11,0,0,0,1.1-5.94c.16-1.62-.81-2.32-2.36-1.71-1.79.7-3.54,1.51-5.26,2.36-.23.11-.2.73-.38,1.49l4.09-.7a7.23,7.23,0,0,1-.78,1c-1.77,1.31-4.15,1.37-5.37,4-.59,1.3-3.78,1.38-6.5,2.24l4.63-3.65c-5.52,2.75-10.65,6-14.24,11.35l-.73-.77c.45-.61.89-1.22,1.34-1.82l-.3-.47c-1.3.95-3,1.63-3.81,2.9a51.79,51.79,0,0,0-3.18,7c-.7,1.56-4.94,5.32-6.59,4.51-1.95-.95-3.09.31-4.59.51-.37.05-.89.14-1.11-.06a30.53,30.53,0,0,1-4.56-4.53c-.5-.72.18-2.29-.12-3.74-.4.52-.7,1.36-1.2,1.5-1.61.46-2.23,2.48-4.79,1.87-2.29-.55-5.16.94-7.62,1.91-.58.23-.84,1.53-2,1.9-2.89.9-9.63-2.1-11.13-4.5-.33-.53-.14-1.39-.24-2.81-.5,1-.68,1.39-1,1.94a46.79,46.79,0,0,1-3.19-3.9c-1.55-2.35-1.3-5-.55-7.51,1.19-4,2.49-8,3.7-12,.12-.37,0-.81-.51-1.52-1.14,1.65-2.23,3.34-3.44,4.93-.78,1-1.78,1.86-2.63,2.82s-1.35,1.87-2.15,2.67c-1.12,1.11-2.37,2.09-3.57,3.13l-.78-1.07c-.62,1.55-2.59,2.22-1.76,4.59.25.72-1.15,2.28-2.08,3.14a128.25,128.25,0,0,1-10.09,8.73c-1.88,1.39-4.66,3-6.55,2.56-2.23-.56-3.75,1.14-5.6.52a14.19,14.19,0,0,1-3.26-1.5,41.21,41.21,0,0,1-5.38-4.06c-1.81-1.73-1-4.19-.32-5.94a58.19,58.19,0,0,1,5.27-9.35c.71-1.08,2.22-1.62,3.29-2.65-4.46-.31-8.85-.19-12.94,1.76a55.45,55.45,0,0,0-8.16,4.62,15.68,15.68,0,0,0-3.55,4.29c-1.6,2.38-2.93,4.95-4.57,7.29a2.77,2.77,0,0,1-2.38,1,6.6,6.6,0,0,1-2.74-2.12,8.55,8.55,0,0,1-.89-2.59l-1.64.78c1-5.64,2-11.15,3-16.66l-.82-.83c-3,.48-6,.89-9,1.45-2.14.41-4.17,2-6.47.39-.24-.17-1,.36-1.46.62-1.46.77-2.86,1.66-4.37,2.29-.43.18-1.15-.36-1.73-.56l0,0-1,.37h-.24l-3.5,1.93,1.3.66c-.65,1.49-1.21,2.76-1.87,4.25-2-.7-2.82,1.26-3.67,2.84-1.89,3.51-3.61,7.12-5.49,10.86l-6-6.46c.76-5.23,1.56-10.8,2.36-16.35l-16.16,5.24,1-2.14-.45-.47a40.63,40.63,0,0,0-4.83,4c-2.1,2.35-3.54,5.41-5.89,7.38-2.51,2.1-2.94,5.25-4.92,7.53-1.29,1.5-2.63,1.48-3.59-.34-.24-.45-.48-.89-.67-1.35s-.28-.85-.47-1.42l-1.71.91c-.11-.39-.4-.83-.29-1.1.95-2.29,1.95-4.57,3-6.83,1.75-3.87,3.69-7.67,5.25-11.63.63-1.59.47-3.51.72-5.75a17.22,17.22,0,0,0-1.81,1c-2.6,1.95-4.92,4.77-7.84,5.72-5.28,1.72-7.12,7-11.33,9.69a12.53,12.53,0,0,0-2.18,2.44l.35.55,1.85-.93a65.31,65.31,0,0,1-4.66,6c-1.38,1.43-3.33,2.29-4.78,3.67-.81.77-1,2.16-1.66,3.15-.48.73-1.27,1.81-1.84,1.76s-2.67.8-2.26-1.52c.05-.28-1.21-1-1.95-1.19-5.25-1.55-7.74-6.07-6.3-11.54.22-.8.44-1.61.61-2.43A6.61,6.61,0,0,0,143,205l-12,13.51-.27-.23,1.72-3.46c-2.54,1.06-4.15,2.21-5.2,4.27a11.57,11.57,0,0,1-2.74,3.4,64.59,64.59,0,0,1-8,6.17c-1.77,1.07-3.68.34-5.62-1-3-2.09-4.35-4.68-3.68-8.15.6-3.16,1.62-6.24,2.57-9.8l-3.55,1a30.13,30.13,0,0,0,4.23-2.9,23.39,23.39,0,0,0,2.59-3.76l-.58-.55c-1.78,1.4-3.61,2.74-5.33,4.22s-3.32,3.21-5.09,4.68a7.6,7.6,0,0,1-2.5.91c-1.61.52-3.22,1-4.84,1.51l.32.95L99,214l.47.63A51.21,51.21,0,0,1,94.05,219c-2.7,1.69-5.85,2.71-8.42,4.56s-4.55,4.39-6.88,6.53c-1,.93-2.3,1.53-3.36,2.42-1.59,1.34-3,2.86-4.65,4.18-.7.58-1.74.73-2.47,1.29-3.91,3-7.74,6.18-11.66,9.2a7.21,7.21,0,0,1-3.23,1.64c-3.18.38-5.07,2.86-7.61,4.18-2.73,1.43-6.07,1.67-9.16,2.38-.25.05-.61-.18-.86-.36-2-1.46-4.34-2.66-5.91-4.52-.83-1-.48-3.14-.41-4.75a14.8,14.8,0,0,1,.86-3.24l-.87-.72-3.64,5.48-.72-.72.54-2.39L25,243.9l-6.88,7.22,1.47.58c-1.38.88-2.68,1.73-4,2.54a15.58,15.58,0,0,1-3.91,1.83c.34-4,4.71-4.29,6.49-7.93-4.86,3.46-10.37,4.57-13.87,9.15L0,255.84a51,51,0,0,1,4.74-5.24,36.21,36.21,0,0,1,7.69-5.48c7.49-3.52,12.23-10.28,18.41-15.32,2.56-2.08,5.29-4.07,6.22-7.61.15-.59,1.16-.95,2-1.57a4,4,0,0,1,0-1.74q2-4.44,4.15-8.77c2.74-5.46,5.47-10.91,8.34-16.29a90.73,90.73,0,0,1,4.88-8.08c3.72-5.55,7.8-10.88,11.24-16.6,1.79-3,4.4-5.28,5.86-8.58,1.26-2.84,3.92-5,5.81-7.6,2.63-3.6,5.09-7.34,7.69-11q4.29-5.94,8.71-11.79c4.29-5.73,8.51-11.51,13-17.1,3.62-4.53,7.58-8.78,11.32-13.22,2.65-3.14,5.13-6.42,7.77-9.56,2.06-2.45,4.89-4.45,6.26-7.21,1.77-3.56,5.21-5.08,7.46-7.93l3.54-4.51c.16.91.23,1.29.3,1.68q-2.67,3.84-5.32,7.7c-1.44,1.16-2.92,2.27-4.3,3.49-1,.88-2.62,2-2.58,2.88.1,2.61-2.08,3.86-2.73,5.93a1.89,1.89,0,0,1-.77.93c-3.4,2.06-3.41,2-2.44,5.69.66-.43,1.54-.69,1.92-1.29,1.82-2.85,3.47-5.83,5.28-8.7.49-.79,1.42-2,2-1.93,2.93.41,3.25-2.09,4.58-3.59s1.56-2.45.39-3.88C144.24,77.48,146.81,74.7,145.31,72.3Zm12.77-10.14c-1.86,3.46-1.86,3.46-.94,4.33,1.51-2,3-3.94,4.53-5.91l-.28-.21-2.54,1.34c1.1-1.51,2.24-3,3.27-4.54a6.59,6.59,0,0,0,.52-1.83l-.74-.24c-1.24,1.64-2.55,3.22-3.67,4.94C157.9,60.56,158.11,61.44,158.08,62.16Zm277-3.92.22-2.28-.61-.35c-.91.74-1.86,1.45-2.74,2.23-1.45,1.28-2.85,2.63-4.3,3.91a21.4,21.4,0,0,0-2.94,2.46c-3.68,4.73-7.26,9.53-10.84,14.34-1.6,2.16-3.12,4.39-4.73,6.66-.52-.92-.73-1.27-.88-1.53-.76,1-1.4,2-2.1,2.88-2.27,2.91-4.32,6-6.9,8.63-3.6,3.63-4.44,9.41-9.4,12-.82.42-1.15,1.75-1.84,2.53-2.59,2.93-5.25,5.81-7.83,8.65l.87,1.33a4.6,4.6,0,0,0-1.36.59c-2.71,2.77-5.57,5.31-6.81,9.33-1.1,3.56-3,6.88-4.56,10.31a9.27,9.27,0,0,1-.45,1.07c-1.13,1.79-2.29,3.56-3.44,5.33-2,.14-5.31,4.06-4.93,6.73l4.87-6.79q6.08-6.28,12.16-12.56c2.2-2.26,4.64-4.3,6.63-6.73,2.29-2.81,4-6.1,6.31-8.9,5-6.14,10.26-12.12,15.47-18.1,1.41-1.61,3.17-2.9,4.58-4.5,1-1.16,1.64-2.66,2.57-3.9,2.23-3,4.53-5.87,6.8-8.81a9.59,9.59,0,0,1,.85-1.23c.65-.63,1.63-1,2-1.79.56-1,.45-2.5,1.08-3.47,3.93-6,8-11.91,12-17.86Zm-267,15.57-2.24,4,.66.45,3.2-4.18-1.41-.44a21.24,21.24,0,0,1,1-2.75c1.33-2.69,2.8-5.31,4.09-8,.87-1.84,1.29-3.92,2.31-5.65,2.9-4.88,6-9.62,9-14.43a22.61,22.61,0,0,0,2.54-4.43A47.4,47.4,0,0,1,195,24.08l-.84,4.16.6.13c1.11-4.25,2.21-8.49,3.37-12.95-2.52-1.32-2.51,3-4.8,3.07l.74-2.2-.61-.38c-1.84,2.32-3.69,4.63-5.52,7-.18.22-.38.62-.3.82,1.35,3.21-.84,5.37-2.31,7.63-2.1,3.26-4.13,6.69-6.84,9.37-1.53,1.51-1.51,5.81-5.48,4.1-.05,0-.14.07-.43.22l-1.28,1.6,1.83,1.09c-.69,1-1.24,1.8-1.84,2.59-2.64,3.49-5.28,7-8,10.45-2,2.54-4,5-6,7.53-1,1.26-2.07,2.48-3,3.79-.66.91-.93,2.26-1.76,2.85a40.68,40.68,0,0,0-10,9.81c-1.76,2.53-3.49,5.07-5.34,7.53-1.4,1.86-3.51,3.37-4.3,5.43-1,2.67-3.57,3.68-4.9,5.89a54,54,0,0,1-4,5.64c-1,1.28-2,2.92-3.34,3.5a10.33,10.33,0,0,0-4,2.83c-1.21,1.43-1.8,3.4-2.92,4.93-1.46,2-3.24,3.71-4.75,5.66-1.12,1.43-3.07,3.26-2.8,4.51.56,2.56-1.12,3.16-2.19,4.55-3.79,4.92-7.41,10-11.1,15-.51.7-1.08,1.37-1.67,2.11L90,149.9c.7-1.51,1.34-2.92,2-4.33-2.41,1.59-5.4,2.48-5.72,5.88,0,.2-.91.3-.94.51-.47,3.66-2.49,6.7-4.11,9.81s-4.58,5.41-5.68,8.54c-1.21,3.43-2,6.87-4.9,9.3a3.25,3.25,0,0,0-.78.95c-.85,1.63-1.6,3.32-2.58,4.87-.1.17-1.2,1.86-2.13.23-.12-.22-1.27-.21-1.39,0a65.63,65.63,0,0,0-3.58,7c-.87,2.11-1.22,4.43-2,6.56-1,2.69-2.3,5.3-3.46,7.94.72.08,1,0,1.26-.26C62.82,200,69.79,193.08,76.56,186c6-6.21,11.57-12.75,17.57-18.91,2.18-2.23,5.05-3.78,7.87-5.83l1.11-2.22c.15-.3.48-.8.42-.86-1.32-1.22,0-2.05.52-2.76,2.38-3,4.91-5.8,7.31-8.74,3.78-4.65,7.46-9.37,11.24-14,3.35-4.12,6.8-8.15,10.14-12.28,1.58-2,2.95-4.11,4.51-6.09,5.65-7.14,11.43-14.17,16.95-21.4,1.59-2.08,2.39-4.76,3.73-7.05,2.9-4.94,5.91-9.8,8.9-14.74Zm-52.77,146.6.63.61,10.69-9.51.56.58L120.32,221c3.34-.75,11.8-11.11,10.57-12.7l-2.26.7c4.75-7.12,10.65-12.56,13.94-20.52a9.74,9.74,0,0,0-1.82.76c-1.32,1-2.59,2-3.87,3.08-1.57,1.27-3.08,2.63-4.7,3.83-2.26,1.68-4.61,3.25-6.9,4.88-.19.13-.28.4-.42.61-1.18,1.85-2.26,3.8-3.58,5.55C118.28,211.19,116.62,215.72,115.28,220.41Zm200.56-25.15-.57-1.39c-4.89.72-9.78,1.42-14.66,2.16-.15,0-.25.33-.4.47q-3.37,3.09-6.76,6.15c-.39.35-1.12.55-1.22.94q-1,3.93-1.75,7.9a2.54,2.54,0,0,0,.43,1.37c2.26-.48,4.66-.73,6.71-1.7,1.6-.77,2.74-2.49,4.14-3.72C306.44,203.36,311.15,199.32,315.84,195.26Zm139.3-3.76a36.94,36.94,0,0,0-2.27,5,61.72,61.72,0,0,0-1.14,6.12c-.34,1.77-.75,3.54-1.13,5.31,1.58-2.29,2.16-5.07,3.81-6.86C457.31,197.87,455.77,194.77,455.14,191.5ZM408,199.55l3,1.49-.87,2.53c3.61-3.75,4.25-6.19,2.38-7.61l1.37-1.52c-.4-.34-.8-.95-1.2-1-.73,0-1.84.13-2.12.6A60.31,60.31,0,0,0,408,199.55ZM114.71,213.21l.66.29,6.24-10.69-.71-.74c-.66.43-1.59.7-2,1.31C117.13,206.48,115.09,209.53,114.71,213.21Zm265.85-79.65.49.5c3.86-1.34,6.17-4.33,5-6.62Zm101.38,90.95-.12-.66-11.53,1.8.12.79C474.21,225.52,478.34,226.86,481.94,224.51ZM239.74,192.1l-.47-.62c-2.17,1.34-4.36,2.65-6.49,4.06-.32.21-.36.89-.53,1.35.5,0,1.16.32,1.45.1C235.75,195.42,237.73,193.74,239.74,192.1Zm-79.33,15.84.33.32,6.26-6.45-.53-.53ZM74.34,194.36c-3.33,1-5.15,3.57-4.47,6.09Zm-10.47,39.9.7.94,5.93-4.5L70,230ZM181.81,33.69c1.44-1.84,2.56-3.29,3.7-4.74C182.73,29,181.86,30,181.81,33.69Z"/><path class="cls-1" d="M458.08,273.9c-2.15,2.58-4.23,5.24-6.5,7.71-.73.8-2,1.12-2.93,1.71a3.41,3.41,0,0,0-1.12.94c-1.61,2.44-2.63,5.84-4.86,7.2-4.1,2.48-6.16,7.49-11.26,8.71a5.63,5.63,0,0,1,.41,1.6c0,.71-.07,1.82-.48,2.05a37.48,37.48,0,0,1-5.61,2.5c-.59.21-2-.12-2-.4-.42-2.12-2.82-2.17-3.74-3.82-.31-.55-1.91-.35-3.46-.57a12.56,12.56,0,0,1,1.83-2.28c4.42-3.16,9-6.06,13.32-9.42,5.19-4.07,10.28-8.31,15.12-12.81,7.23-6.72,14.15-13.79,21.31-20.61,5.64-5.37,11.22-10.85,17.21-15.81,6.26-5.18,11.2-11.63,17-17.22a14.33,14.33,0,0,1,1.74-1.23l.59.35c-1.28,2.27-2.55,4.55-3.88,6.92l1.81-.81c-1,3.1-1.88,5.87-2.77,8.63l.78.29-11.5,10.75-.47-.3.62-2.64a15,15,0,0,0-3.06,2c-1.59,1.85-2.91,3.94-4.49,5.8-1,1.17-2.35,2-3.42,3.17q-3.07,3.27-6,6.7c-1.34,1.56-2.52,3.27-3.86,4.82-1.7,2-3.46,3.89-5.29,5.74a9.82,9.82,0,0,1-2.54,1.16l3.63-3.87-.45-.59c-.72.5-1.43,1-2.16,1.49-1.19.75-2.39,1.46-3.59,2.2-.25-.74-.49-1.49-.8-2.49l-3.95,3.73.52.78Zm13.16-15.38.58.57,5.68-4.58c-.43-.42-.85-.85-1.27-1.27C474.38,254.81,472.22,256.08,471.24,258.52Zm-31.48,32.06-.52-.63-5.62,4.86.47.56Z"/><path class="cls-1" d="M401.4,117.66c.83-1.35,1.57-2.77,2.52-4a61.09,61.09,0,0,1,4.29-5.09c.39-.42,1.24-.39,1.88-.57l.16.7-7.84,9.75Z"/><path class="cls-1" d="M601.94,140.14l.74,0a7.65,7.65,0,0,1-6.87,7.11l.12-.5,3.44-4.93Z"/><path class="cls-1" d="M599.37,141.78l-3.44,4.93-.84.16.7,1-3.35.37C593.45,144.81,596.6,143.5,599.37,141.78Z"/><path class="cls-1" d="M440.77,41.59a2.76,2.76,0,0,1-.31.37c-.18-.67-.35-1.35-.67-2.54l-5,4.76c-.08-1.38,3.46-5.73,4.83-5.58C441.6,38.83,441.32,40.21,440.77,41.59Z"/><path class="cls-1" d="M661.85,187.59l1-1,3.24-1.66c.8,3-2.56,3.16-3.55,5.18Z"/><path class="cls-1" d="M666.17,72.5l0-.14-3.42,2.82c1.56,2.22-.29,3.1-1.65,4.19,1.48-2,.45-5.17,3-6.57A6.07,6.07,0,0,1,666.17,72.5Z"/><path class="cls-1" d="M528.79,233.31l4.82-3,3.47-.46c-2.78,1.5-5,2.74-7.3,3.9C529.57,233.85,529.13,233.47,528.79,233.31Z"/><path class="cls-1" d="M908.44,203.85l-7.89.74-.06-.66,7.94-.67Z"/><path class="cls-1" d="M750.82,151.87a1,1,0,0,0,0,.3l-.78,0a2.3,2.3,0,0,1,.09-.39A4.94,4.94,0,0,1,750.82,151.87Z"/><path class="cls-1" d="M232.83,198.24h.24c-.1.17-.19.35-.3.51s-.13,0-.21,0Z"/><path class="cls-1" d="M234.1,197.88l0,0Z"/></g></g></svg>